<svg id="R" xmlns="http://www.w3.org/2000/svg" xmlns:xlink="http://www.w3.org/1999/xlink" viewBox="0 0 847.86 255.79">
    <defs>
        <style>
            .cls-1 {
                fill: url(#linear-gradient);
            }

            .cls-2 {
                fill: #010e00;
            }

            .cls-3 {
                fill: #de1e60;
            }

        </style>
        <linearGradient id="linear-gradient" x1="36.03" y1="157.26" x2="192.05" y2="248.9" gradientUnits="userSpaceOnUse">
            <stop offset="0" stop-color="#fff" stop-opacity="0" />
            <stop offset="0.83" />
        </linearGradient>
    </defs>
    <title>Artboard 3</title>
    <path id="navn" d="M847.86,211.72H219.75V47.09H847.86Zm-618.11-10H837.86V57.09H229.75Zm89.13-66.1V159.4H304.73v-60h26.36a33.56,33.56,0,0,1,11.71,1.69,15,15,0,0,1,7.32,6.22,18.26,18.26,0,0,1,2.9,10.05q0,10.81-10.41,15.51l11.07,26.52H338.15l-9.21-23.78Zm0-25.53v15.29h8.61a22.56,22.56,0,0,0,6.13-.59,6.74,6.74,0,0,0,3.4-2.64,7.69,7.69,0,0,0,1.5-4.68A7.22,7.22,0,0,0,337,113a6.14,6.14,0,0,0-3.25-2.44,30.58,30.58,0,0,0-6.59-.46Zm61.32,4q10.14,0,15.83,6.64t5.68,16.61q0,9.84-5.9,16.41t-15.7,6.57q-9.48,0-15.16-6.5t-5.69-16.7a25.82,25.82,0,0,1,2.57-12,21.32,21.32,0,0,1,7-8A19.82,19.82,0,0,1,380.2,114.09Zm.35,8.57a6.27,6.27,0,0,0-5.61,2.88q-1.87,2.88-1.88,11.45,0,7.86,1.8,11.29a5.92,5.92,0,0,0,5.6,3.43,6.31,6.31,0,0,0,5.39-2.93q2.07-2.91,2.06-11.14,0-8.74-1.81-11.86A6,6,0,0,0,380.55,122.66Zm62.65,3.08-9.54,2.54q-1.67-6-8.66-6-6.58,0-6.59,4a3,3,0,0,0,1.21,2.53c.8.63,2.91,1.17,6.31,1.6a58.37,58.37,0,0,1,11.25,2.32,11.64,11.64,0,0,1,5.78,4.44,13.31,13.31,0,0,1,2.13,7.69A13.81,13.81,0,0,1,439.88,156q-5.2,4.31-14.57,4.31-17,0-20.26-13.14l11-1.63q1.37,6,9.85,6a11.76,11.76,0,0,0,5.49-1.17,3.51,3.51,0,0,0,2.24-3.15q0-3.08-5-3.65-13.45-1.65-17.69-5.15t-4.24-9.73a13.07,13.07,0,0,1,4.92-10.46q4.92-4.12,13.8-4.13,7,0,11.25,2.77T443.2,125.74Zm48.07,33.66h-12.7a31.71,31.71,0,0,1-.61-7q-3.34,4.76-6.65,6.31a17.47,17.47,0,0,1-7.52,1.56q-6.24,0-10.07-3.38a11.53,11.53,0,0,1-3.84-9.1,14,14,0,0,1,2.23-7.69,14.77,14.77,0,0,1,7.2-5.52q5-2,18.08-3v-2.55q0-6.47-6.44-6.46-6.88,0-7.67,6.46L451.19,128c.8-5,3.18-8.62,7.17-10.73a28.44,28.44,0,0,1,13.53-3.16,33.5,33.5,0,0,1,8.53,1,14.34,14.34,0,0,1,6.24,3.17,11,11,0,0,1,3,4.46,29,29,0,0,1,.79,8.19v20.13A31,31,0,0,0,491.27,159.4Zm-13.88-21.27q-13.71,1.37-13.71,8.3a6,6,0,0,0,1.44,4,5.12,5.12,0,0,0,4.12,1.7,7.19,7.19,0,0,0,5.8-2.88,10.91,10.91,0,0,0,2.35-7.1Zm93.73-10.81V159.4h-6.41a47.58,47.58,0,0,0-2-6.9,20.27,20.27,0,0,1-16.36,7.82q-11.75,0-18.27-8.39t-6.53-21.71q0-14.32,7-23t18.91-8.7q10,0,16.18,5.62t7.51,15l-13.36,1.76Q556.14,110,547.43,110a9.37,9.37,0,0,0-8.63,5.16q-2.92,5.17-2.92,14.75,0,9.23,3.16,14.1a10.13,10.13,0,0,0,9,4.88,10.29,10.29,0,0,0,6.75-2.46q3-2.46,3-7.87H546.47v-11.2Zm50.32,12.08H592.87c0,.79,0,1.48,0,2.07q0,4.74,2.53,7.16a8.44,8.44,0,0,0,6,2.42q6.55,0,7.87-7l11.86.88q-5,15.38-20.17,15.38a22.35,22.35,0,0,1-11.27-2.66,21.07,21.07,0,0,1-7.65-7.75,23.71,23.71,0,0,1-3-12.22q0-10.59,6-17.1a21.37,21.37,0,0,1,30.24-.46Q621.44,126.18,621.44,139.4Zm-28.61-7.6h15.78q-.61-9.14-7.52-9.14Q593.71,122.66,592.83,131.8Zm49.57,27.6H629.7V115h12v8.26q2.76-9.22,9.58-9.22c.64,0,1.43,0,2.37.13V127.1a13,13,0,0,0-6.22,1.23,8.85,8.85,0,0,0-3.62,4.41,21.64,21.64,0,0,0-1.41,8.6Zm56.29-60v60H686.61v-7q-4.49,7.88-12.24,7.87a13.45,13.45,0,0,1-11.59-6q-4.26-6-4.25-16.63,0-11.07,4.25-17.34t12.3-6.26A12.44,12.44,0,0,1,686,119.67V99.41ZM686,133.6q0-10.45-6.34-10.46-7.59,0-7.59,14.77,0,13.14,7.1,13.14a6.13,6.13,0,0,0,4.78-2.38q2.05-2.37,2-6.76Zm63.37,5.8H720.8c0,.79,0,1.48,0,2.07q0,4.74,2.52,7.16a8.46,8.46,0,0,0,6.05,2.42q6.54,0,7.86-7l11.87.88q-5,15.38-20.17,15.38a22.36,22.36,0,0,1-11.28-2.66,21,21,0,0,1-7.64-7.75,23.61,23.61,0,0,1-3-12.22q0-10.59,6-17.1a21.36,21.36,0,0,1,30.23-.46Q749.37,126.18,749.36,139.4Zm-28.6-7.6h15.77q-.62-9.14-7.51-9.14Q721.64,122.66,720.76,131.8Zm70.09-6.06-9.54,2.54q-1.66-6-8.66-6-6.58,0-6.59,4a3.06,3.06,0,0,0,1.21,2.53c.81.63,2.91,1.17,6.31,1.6a58,58,0,0,1,11.25,2.32,11.64,11.64,0,0,1,5.78,4.44,13.31,13.31,0,0,1,2.13,7.69A13.81,13.81,0,0,1,787.53,156q-5.21,4.31-14.57,4.31-17,0-20.26-13.14l11-1.63q1.37,6,9.85,6a11.73,11.73,0,0,0,5.49-1.17,3.51,3.51,0,0,0,2.24-3.15q0-3.08-5-3.65-13.46-1.65-17.69-5.15t-4.24-9.73a13.07,13.07,0,0,1,4.92-10.46q4.92-4.12,13.8-4.13,7,0,11.25,2.77T790.85,125.74Z" />
    <path id="bogstavskygge" class="cls-1" d="M59.2,214.88l.2.11,15.36,8.6,47.68,26.72c.35.2.73.39,1.12.59s.8.38,1.22.56l1.31.55,1.37.51q.71.25,1.44.48l1.48.45,1.52.4,1.54.37c.52.12,1,.22,1.55.32s1,.2,1.55.28,1,.16,1.53.23,1,.12,1.5.17.85.08,1.27.11l1.22.06,1.18,0c.39,0,.76,0,1.13,0h.51l.17,0,62.87-4.59h.22L59.2,214.88M5.83,179.74H4.15l-.74,0-.68.05-.69.1a4.54,4.54,0,0,0-.6.12,3.27,3.27,0,0,0-.5.15,2.85,2.85,0,0,0-.39.17,1.34,1.34,0,0,0-.29.2.66.66,0,0,0-.19.22A.61.61,0,0,0,0,181a.82.82,0,0,0,0,.26,1.75,1.75,0,0,0,.17.28,2,2,0,0,0,.29.3,3.93,3.93,0,0,0,.41.32,5.11,5.11,0,0,0,.54.33l46.14,25.85,172.78,41.48,39.84-2.91a9,9,0,0,0,1.08-.14,3.24,3.24,0,0,0,.76-.24,1.37,1.37,0,0,0,.46-.31.68.68,0,0,0,.17-.39.76.76,0,0,0-.09-.45,2,2,0,0,0-.33-.5,3.73,3.73,0,0,0-.57-.54,9.58,9.58,0,0,0-.79-.58c-.29-.19-.62-.39-1-.59s-.75-.41-1.17-.61-.86-.41-1.33-.62l-1.49-.61c-.52-.2-1.07-.4-1.64-.59s-1.15-.39-1.76-.57-1.23-.37-1.87-.54-1.31-.35-2-.51L169.4,220.4a13.24,13.24,0,0,0,1.75-.71,8.27,8.27,0,0,0,1.36-.8,5.19,5.19,0,0,0,1-.89,3.71,3.71,0,0,0,.59-1,3.06,3.06,0,0,0,.21-1,3.62,3.62,0,0,0-.15-1.11,5.87,5.87,0,0,0-.5-1.18,9.42,9.42,0,0,0-.85-1.23,13.3,13.3,0,0,0-1.17-1.27c-.44-.43-.94-.87-1.49-1.31s-1.15-.9-1.81-1.36-1.36-.91-2.11-1.38-1.56-.93-2.42-1.41-1.75-.95-2.7-1.43-1.95-1-3-1.45-2.13-1-3.27-1.47q-2.2-.94-4.53-1.86c-1.54-.61-3.13-1.2-4.75-1.79s-3.26-1.15-4.94-1.71-3.37-1.1-5.09-1.63-3.46-1-5.23-1.56-3.54-1-5.33-1.47-3.59-.93-5.4-1.37-3.62-.87-5.44-1.29-3.66-.8-5.49-1.18-3.66-.74-5.48-1.08-3.64-.66-5.45-1-3.6-.58-5.38-.84-3.58-.51-5.35-.73-3.51-.41-5.23-.59-3.42-.32-5.09-.44-3.32-.22-4.93-.29H70.44l-64-2.76H5.83" />
    <path id="bogstavkant" class="cls-2" d="M138.56,254.36a9.41,9.41,0,0,0,3.91,1.38l-8.8-1a9.36,9.36,0,0,1-3.89-1.37,11.15,11.15,0,0,1-3.14-3,14.26,14.26,0,0,1-2.1-4.2,17.33,17.33,0,0,1-.76-5.13V139l8.76.08V242a17.23,17.23,0,0,0,.77,5.17,14.37,14.37,0,0,0,2.1,4.24A11.54,11.54,0,0,0,138.56,254.36Zm-6-137.63V13.82a17.16,17.16,0,0,1,.77-5.16,14.55,14.55,0,0,1,2.1-4.25,11.36,11.36,0,0,1,3.15-3A9.27,9.27,0,0,1,142.47.06l-8.8,1a9.5,9.5,0,0,0-3.89,1.37,11.29,11.29,0,0,0-3.14,3,14.19,14.19,0,0,0-2.1,4.21,17.23,17.23,0,0,0-.76,5.13v102.1l92,132.18,9,.9Z" />
    <path id="Bpgstav" class="cls-3" d="M132.54,139.45v-.39l78.14,111.87-.25,0-66.26,4.82a9.09,9.09,0,0,1-4.51-.82,10.9,10.9,0,0,1-3.7-2.86,14.13,14.13,0,0,1-2.5-4.48,17.32,17.32,0,0,1-.92-5.64V139.45ZM238.85,159.8a54.85,54.85,0,0,0,14.35-11.7,74.44,74.44,0,0,0,11.1-16.83,94.67,94.67,0,0,0,7.18-20.81,111.42,111.42,0,0,0-1.62-54,91.08,91.08,0,0,0-11.5-25.3A64.42,64.42,0,0,0,241,13.27a44.64,44.64,0,0,0-21.75-7.78l-.38,0-.38,0-.38,0-.38,0L144.17,0a9.31,9.31,0,0,0-4.51.82A10.81,10.81,0,0,0,136,3.71a14.08,14.08,0,0,0-2.5,4.47,17.37,17.37,0,0,0-.92,5.64V116.73L224.75,249.9l48.88-3.55a8.73,8.73,0,0,0,5.52-2.66,14.65,14.65,0,0,0,3.45-5.85,18.51,18.51,0,0,0,.83-7.28,15.05,15.05,0,0,0-2.36-7Z" />
</svg>
