<svg id="Layer_3" data-name="Layer 3" xmlns="http://www.w3.org/2000/svg" viewBox="0 0 250 250"><title>Artboard 1</title><circle cx="204.98" cy="197.71" r="6.5"/><circle cx="190.22" cy="197.71" r="6.5"/><circle cx="175.66" cy="197.71" r="6.5"/><circle cx="161.16" cy="197.71" r="6.5"/><circle cx="190.22" cy="183.31" r="6.5"/><circle cx="175.66" cy="183.31" r="6.5"/><circle cx="161.16" cy="183.31" r="6.5"/><circle cx="146.61" cy="183.31" r="6.5"/><circle cx="175.66" cy="168.37" r="6.5"/><circle cx="161.16" cy="168.37" r="6.5"/><circle cx="146.61" cy="168.37" r="6.5"/><circle cx="132.21" cy="168.37" r="6.5"/><circle cx="161.16" cy="154.21" r="6.5"/><circle cx="146.61" cy="154.21" r="6.5"/><circle cx="132.21" cy="154.21" r="6.5"/><circle cx="117.71" cy="154.21" r="6.5"/><circle cx="146.61" cy="139.19" r="6.5"/><circle cx="132.21" cy="139.19" r="6.5"/><circle cx="117.71" cy="139.19" r="6.5"/><circle cx="146.61" cy="125.15" r="6.5"/><circle cx="132.21" cy="125.15" r="6.5"/><circle cx="117.71" cy="125.15" r="6.5"/><circle cx="161.16" cy="125.15" r="6.5"/><circle cx="175.66" cy="125.15" r="6.5"/><circle cx="190.22" cy="125.15" r="6.5"/><circle cx="103.09" cy="125.15" r="6.5"/><circle cx="103.09" cy="139.19" r="6.5"/><circle cx="190.22" cy="110.61" r="6.5"/><circle cx="175.66" cy="110.61" r="6.5"/><circle cx="161.16" cy="110.61" r="6.5"/><circle cx="146.61" cy="110.61" r="6.5"/><circle cx="132.21" cy="110.61" r="6.5"/><circle cx="117.71" cy="110.61" r="6.5"/><circle cx="103.09" cy="110.61" r="6.5"/><circle cx="204.98" cy="110.61" r="6.5"/><circle cx="204.98" cy="96.06" r="6.5"/><circle cx="190.22" cy="96.06" r="6.5"/><circle cx="175.66" cy="96.06" r="6.5"/><circle cx="190.22" cy="81.7" r="6.5"/><circle cx="190.22" cy="67.33" r="6.5"/><circle cx="204.98" cy="81.7" r="6.5"/><circle cx="204.98" cy="67.33" r="6.5"/><circle cx="190.22" cy="52.29" r="6.5"/><circle cx="175.66" cy="52.29" r="6.5"/><circle cx="175.66" cy="67.33" r="6.5"/><circle cx="175.66" cy="81.7" r="6.5"/><circle cx="161.16" cy="81.7" r="6.5"/><circle cx="161.16" cy="67.33" r="6.5"/><circle cx="161.16" cy="52.29" r="6.5"/><circle cx="146.61" cy="81.7" r="6.5"/><circle cx="146.61" cy="67.33" r="6.5"/><circle cx="146.61" cy="52.29" r="6.5"/><circle cx="132.21" cy="81.7" r="6.5"/><circle cx="132.21" cy="67.33" r="6.5"/><circle cx="132.21" cy="52.29" r="6.5"/><circle cx="117.71" cy="52.29" r="6.5"/><circle cx="103.09" cy="52.29" r="6.5"/><circle cx="88.44" cy="52.29" r="6.5"/><circle cx="117.71" cy="67.33" r="6.5"/><circle cx="117.71" cy="81.7" r="6.5"/><circle cx="103.09" cy="81.7" r="6.5"/><circle cx="103.09" cy="67.33" r="6.5"/><circle cx="88.44" cy="67.33" r="6.5"/><circle cx="88.44" cy="81.7" r="6.5"/><circle cx="88.44" cy="96.06" r="6.5"/><circle cx="88.44" cy="110.61" r="6.5"/><circle cx="88.44" cy="125.15" r="6.5"/><circle cx="88.44" cy="139.19" r="6.5"/><circle cx="88.44" cy="154.21" r="6.5"/><circle cx="88.44" cy="168.37" r="6.5"/><circle cx="88.44" cy="183.31" r="6.5"/><circle cx="88.44" cy="197.71" r="6.5"/><circle cx="73.96" cy="52.29" r="6.5"/><circle cx="59.32" cy="52.29" r="6.5"/><circle cx="45.02" cy="52.29" r="6.5"/><circle cx="45.02" cy="67.33" r="6.5"/><circle cx="45.02" cy="81.7" r="6.5"/><circle cx="45.02" cy="96.06" r="6.5"/><circle cx="45.02" cy="110.61" r="6.5"/><circle cx="45.02" cy="125.15" r="6.5"/><circle cx="45.02" cy="139.19" r="6.5"/><circle cx="45.02" cy="154.21" r="6.5"/><circle cx="45.02" cy="168.37" r="6.5"/><circle cx="45.02" cy="183.31" r="6.5"/><circle cx="45.02" cy="197.71" r="6.5"/><circle cx="59.32" cy="197.71" r="6.5"/><circle cx="73.96" cy="197.71" r="6.5"/><circle cx="73.96" cy="183.31" r="6.5"/><circle cx="59.32" cy="183.31" r="6.5"/><circle cx="59.32" cy="168.37" r="6.5"/><circle cx="73.96" cy="168.37" r="6.5"/><circle cx="73.96" cy="154.21" r="6.5"/><circle cx="59.32" cy="154.21" r="6.5"/><circle cx="59.32" cy="139.19" r="6.5"/><circle cx="73.96" cy="139.19" r="6.5"/><circle cx="73.96" cy="125.15" r="6.5"/><circle cx="59.32" cy="125.15" r="6.5"/><circle cx="73.96" cy="110.61" r="6.5"/><circle cx="59.32" cy="110.61" r="6.5"/><circle cx="73.96" cy="96.06" r="6.5"/><circle cx="59.32" cy="96.06" r="6.5"/><circle cx="73.96" cy="81.7" r="6.5"/><circle cx="59.32" cy="81.7" r="6.5"/><circle cx="73.96" cy="67.33" r="6.5"/><circle cx="59.32" cy="67.33" r="6.5"/></svg>
