<svg xmlns="http://www.w3.org/2000/svg" xmlns:xlink="http://www.w3.org/1999/xlink" viewBox="0 0 250 250"><defs><style>.cls-1{fill:url(#linear-gradient);}</style><linearGradient id="linear-gradient" x1="0.28" y1="89.35" x2="175.99" y2="192.55" gradientUnits="userSpaceOnUse"><stop offset="0" stop-opacity="0"/><stop offset="0.83"/></linearGradient></defs><title>Artboard 3 copy</title><g id="Layer_3" data-name="Layer 3"><path id="Bpgstav" d="M55.51,136.29v-.38l76.37,109.33-.25,0L66.88,250a9,9,0,0,1-4.41-.8,10.63,10.63,0,0,1-3.61-2.8A13.81,13.81,0,0,1,56.41,242a16.8,16.8,0,0,1-.9-5.51V136.29Zm103.91,19.89a53.67,53.67,0,0,0,14-11.43,72.84,72.84,0,0,0,10.85-16.46,91.9,91.9,0,0,0,7-20.33,109,109,0,0,0-1.58-52.76,89,89,0,0,0-11.23-24.72,63.08,63.08,0,0,0-17-17.51,43.6,43.6,0,0,0-21.27-7.6l-.36,0h-.37l-.37,0-.37,0L66.88,0a9,9,0,0,0-4.41.8,10.63,10.63,0,0,0-3.61,2.8A13.81,13.81,0,0,0,56.41,8a16.8,16.8,0,0,0-.9,5.51V114.09l90.12,130.15,47.77-3.47a8.51,8.51,0,0,0,5.4-2.6,14.22,14.22,0,0,0,3.37-5.71,17.93,17.93,0,0,0,.81-7.12,14.56,14.56,0,0,0-2.3-6.82Z"/><path id="bogstavkant" class="cls-1" d="M61.4,248.59a9,9,0,0,0,3.81,1.35l-8.59-1a9.11,9.11,0,0,1-3.81-1.34,11.05,11.05,0,0,1-3.07-2.89,13.88,13.88,0,0,1-2.05-4.11,16.85,16.85,0,0,1-.74-5V135.83l8.56.08V236.49a17.07,17.07,0,0,0,.75,5,14,14,0,0,0,2.06,4.15A11,11,0,0,0,61.4,248.59Zm-5.89-134.5V13.51a17.07,17.07,0,0,1,.75-5,14.26,14.26,0,0,1,2.06-4.15,11,11,0,0,1,3.08-2.9A9,9,0,0,1,65.21.06L56.62,1a9.11,9.11,0,0,0-3.81,1.34,11.05,11.05,0,0,0-3.07,2.89,13.88,13.88,0,0,0-2.05,4.11,16.85,16.85,0,0,0-.74,5v99.79l89.89,129.19,8.79.88Z"/></g></svg>
